<svg height="900" viewBox="0 0 900 900" width="900" xmlns="http://www.w3.org/2000/svg" xmlns:xlink="http://www.w3.org/1999/xlink"><filter id="a" color-interpolation-filters="sRGB" filterUnits="userSpaceOnUse" height="900" width="900" x="0" y="0"><feGaussianBlur stdDeviation="2.037065"/></filter><filter id="b" color-interpolation-filters="sRGB" filterUnits="userSpaceOnUse" height="900" width="900" x="0" y="0"><feGaussianBlur stdDeviation="6.803318"/></filter><filter id="c" color-interpolation-filters="sRGB" filterUnits="userSpaceOnUse" height="900" width="900" x="0" y="0"><feGaussianBlur stdDeviation="6.236246"/></filter><g fill="#fff"><path d="m362.848267 19c96.92929 161.760254-28.058167 235.973694-38.987641 386.136719 0 99.967682 55.448609 181.103821 123.774323 181.103821 68.325744 0 123.774353-81.136139 123.774353-181.103821 2.448547-198.065674-103.618286-299.168579-208.561035-386.136719z" filter="url(#a)" opacity=".731095"/><path d="m431.296448 174.170349c21.547271 81.02478-53.623291 133.66864-61.380768 240.191834 0 70.919006 39.332642 128.471069 87.802856 128.471069 48.470215 0 87.802887-57.552063 87.802887-128.471069-14.001281-153.991639-57.76358-180.747681-114.224975-240.191834z" filter="url(#b)" opacity=".565853"/><path d="m455.46759 510.250946c20.16092 0 36.504608 11.576813 36.504608 25.857452 0 14.280762-16.343688 25.857422-36.504608 25.857422-20.160919 0-36.504608-11.57666-36.504608-25.857422 0-14.280639 16.343689-25.857452 36.504608-25.857452z" filter="url(#c)"/><path d="m267.586029 586.729126h363.459076c40.088135 0 72.585999 17.096558 72.585999 38.186279v218.188294c0 21.089721-32.497864 38.186279-72.585999 38.186279h-363.459076c-40.08815 0-72.586029-17.096558-72.586029-38.186279v-218.188294c0-21.089721 32.497879-38.186279 72.586029-38.186279z"/></g></svg>