<?xml version="1.0" encoding="UTF-8" standalone="no"?>
<!-- Generated by IcoMoon.io -->

<svg
   xmlns:dc="http://purl.org/dc/elements/1.1/"
   xmlns:cc="http://creativecommons.org/ns#"
   xmlns:rdf="http://www.w3.org/1999/02/22-rdf-syntax-ns#"
   xmlns:svg="http://www.w3.org/2000/svg"
   xmlns="http://www.w3.org/2000/svg"
   xmlns:sodipodi="http://sodipodi.sourceforge.net/DTD/sodipodi-0.dtd"
   xmlns:inkscape="http://www.inkscape.org/namespaces/inkscape"
   version="1.1"
   width="32"
   height="32"
   viewBox="0 0 32 32"
   id="svg2"
   inkscape:version="0.91 r13725"
   sodipodi:docname="candle.svg">
  <metadata
     id="metadata12">
    <rdf:RDF>
      <cc:Work
         rdf:about="">
        <dc:format>image/svg+xml</dc:format>
        <dc:type
           rdf:resource="http://purl.org/dc/dcmitype/StillImage" />
        <dc:title>fire</dc:title>
      </cc:Work>
    </rdf:RDF>
  </metadata>
  <defs
     id="defs10" />
  <sodipodi:namedview
     pagecolor="#ffffff"
     bordercolor="#666666"
     borderopacity="1"
     objecttolerance="10"
     gridtolerance="10"
     guidetolerance="10"
     inkscape:pageopacity="0"
     inkscape:pageshadow="2"
     inkscape:window-width="895"
     inkscape:window-height="647"
     id="namedview8"
     showgrid="false"
     inkscape:zoom="7.375"
     inkscape:cx="13.627119"
     inkscape:cy="16"
     inkscape:window-x="351"
     inkscape:window-y="101"
     inkscape:window-maximized="0"
     inkscape:current-layer="svg2" />
  <title
     id="title4">fire</title>
  <path
     d="m 13.717566,11.118644 c -0.623577,-1.3728669 -0.29147,-2.1595277 0.187688,-2.9004057 0.524764,-0.8117176 0.660121,-1.615083 0.660121,-1.615083 0,0 0.412502,0.5673362 0.247618,1.454843 0.728823,-0.8584285 0.866227,-2.2260366 0.756304,-2.7497554 1.647379,1.2181952 2.351352,3.8556589 1.402684,5.8104011 5.046506,-3.021359 1.255341,-7.5417973 0.59522,-8.0512862 0.220138,0.5091796 0.261651,1.3713202 -0.182717,1.7895528 C 16.632273,1.8380262 14.771772,1.219339 14.771772,1.219339 14.99191,2.7762654 13.974248,4.4785833 12.993129,5.7506043 12.958632,5.1297517 12.922088,4.7013108 12.613661,4.107371 c -0.06929,1.1278668 -0.883767,2.0469267 -1.104197,3.176959 -0.298779,1.5300135 0.223646,2.6504561 2.208687,3.834005 z"
     id="path6"
     inkscape:connector-curvature="0"
     style="fill:#ffffff;fill-opacity:1" />
  <path
     style="fill:#ffffff;fill-rule:evenodd;stroke:#ffffff;stroke-width:1.66340506;stroke-linecap:butt;stroke-linejoin:miter;stroke-miterlimit:4;stroke-dasharray:none;stroke-opacity:0.94117647;fill-opacity:1"
     d="m 9.8749978,13.07719 0,12.942753 c 3.7051302,2.639044 7.0800992,2.790942 10.7852302,-0.11556 0.03669,-4.468332 0.07337,6.371779 0.110054,-13.404995 -2.157039,3.380712 -7.702127,3.343677 -10.8952842,0.577802 z"
     id="path4205"
     inkscape:connector-curvature="0"
     sodipodi:nodetypes="ccccc" />
</svg>
